# xmcd
#
# Track frame offsets:
#	150
#	11613
#	24232
#	41625
#	54976
#	72119
#	85867
#	98436
#	117304
#	130761
#
# Disc length: 1947 seconds
#
# Revision: 0
# Processed by: cddbd v1.5.1PL0 Copyright (c) Steve Scherf et al.
# Submitted via: audiograbber 1.83.01
#
DISCID=7007990a
DTITLE=McGraw, Tim - Not A Moment Too Soon - McGraw, Tim - Not A Moment Too Soo
DTITLE=n
DYEAR=1994
DGENRE=Country
TTITLE0=It Doesn't Get Any Countrier Than This
TTITLE1=Give It To Me Strait
TTITLE2=Wouldn't Want It Any Other Way
TTITLE3=Down On The Farm
TTITLE4=Not A Moment Too Soon
TTITLE5=Indian Outlaw
TTITLE6=Refried Dreams
TTITLE7=Don't Take The Girl
TTITLE8=40 Days And 40 Nights
TTITLE9=Ain't That Just Like A Dream
EXTD=
EXTT0=
EXTT1=
EXTT2=
EXTT3=
EXTT4=
EXTT5=
EXTT6=
EXTT7=
EXTT8=
EXTT9=
PLAYORDER=
